<svg width="1361" height="1360" viewBox="0 0 1361 1360" fill="none" xmlns="http://www.w3.org/2000/svg">
<g clip-path="url(#clip0_1_202)">
<circle cx="680.168" cy="680" r="680" fill="#A36EFD"/>
<path d="M923.508 356.543C864.878 349.809 825.784 346.441 681.592 346.441C557.883 346.441 497.589 350.923 439.676 356.543C412.604 359.167 391.011 379.766 392.999 407.006L425.019 843.195L681.569 935.133L938.142 843.195L970.162 407.006C972.173 379.766 950.511 359.655 923.485 356.543H923.508Z" fill="#4C2897"/>
<path d="M1003.71 733.314C1003.71 733.314 949.031 766.15 929.242 773.675C869.78 796.316 681.616 831.986 681.616 831.986C681.616 831.986 493.428 796.34 433.989 773.675C414.2 766.127 359.523 733.314 359.523 733.314C325.446 714.852 287.416 741.372 287.346 780.27C287.231 843.226 336.405 907.878 402.733 948.633C477.522 994.59 589.163 1013.66 681.616 1013.66C774.068 1013.66 885.709 994.59 960.498 948.633C1026.83 907.878 1076 843.203 1075.88 780.27C1075.82 741.372 1037.78 714.852 1003.71 733.314Z" fill="#4C2897"/>
<path d="M949.978 700.792C907.855 712.682 842.175 745.728 681.591 745.728C521.007 745.728 455.327 712.682 413.204 700.792C406.13 698.795 399.217 704.368 399.61 711.753L405.321 815.767C405.529 819.715 407.008 823.43 409.505 826.473C426.96 847.605 505.217 921.337 681.568 921.337C857.919 921.337 935.228 848.557 953.33 826.867C956.058 823.593 957.63 819.529 957.885 815.256L963.572 711.753C963.988 704.392 957.052 698.795 949.978 700.792Z" fill="#A36EFD"/>
</g>
<defs>
<clipPath id="clip0_1_202">
<rect width="1360" height="1360" fill="white" transform="translate(0.167969)"/>
</clipPath>
</defs>
</svg>
