<svg width="632" height="110" viewBox="0 0 632 110" fill="none" xmlns="http://www.w3.org/2000/svg">
<path d="M31.9188 90.2891C25.5516 90.2891 20.0438 88.9805 15.3953 86.3633C10.7469 83.7461 7.15314 79.9961 4.61407 75.1133C2.07501 70.2305 0.805481 64.3906 0.805481 57.5938V57.4766C0.805481 50.7188 2.09454 44.918 4.67267 40.0742C7.25079 35.1914 10.8641 31.4414 15.5125 28.8242C20.1609 26.207 25.6102 24.8984 31.8602 24.8984C38.1492 24.8984 43.618 26.207 48.2664 28.8242C52.9539 31.4023 56.5867 35.1328 59.1649 40.0156C61.743 44.8594 63.032 50.6797 63.032 57.4766V57.5938C63.032 64.4297 61.743 70.2891 59.1649 75.1719C56.6258 80.0547 53.032 83.8047 48.3836 86.4219C43.7352 89 38.2469 90.2891 31.9188 90.2891ZM31.9774 76.8711C34.7508 76.8711 37.1531 76.1289 39.1844 74.6445C41.2547 73.1211 42.8367 70.9336 43.9305 68.082C45.0633 65.1914 45.6297 61.6953 45.6297 57.5938V57.4766C45.6297 53.4141 45.0633 49.957 43.9305 47.1055C42.7977 44.2539 41.1961 42.0859 39.1258 40.6016C37.0555 39.0781 34.6336 38.3164 31.8602 38.3164C29.1258 38.3164 26.7234 39.0781 24.6531 40.6016C22.6219 42.0859 21.0399 44.2539 19.907 47.1055C18.7742 49.957 18.2078 53.4141 18.2078 57.4766V57.5938C18.2078 61.6953 18.7547 65.1914 19.8484 68.082C20.9813 70.9336 22.5828 73.1211 24.6531 74.6445C26.7234 76.1289 29.1649 76.8711 31.9774 76.8711ZM74.2797 109.508V26.1875H91.3891V37.1445H91.7992C92.932 34.6055 94.4164 32.418 96.2524 30.582C98.1274 28.7461 100.295 27.3398 102.756 26.3633C105.256 25.3867 107.991 24.8984 110.959 24.8984C116.272 24.8984 120.842 26.207 124.67 28.8242C128.498 31.4023 131.448 35.1328 133.518 40.0156C135.588 44.8984 136.623 50.7383 136.623 57.5352V57.5938C136.623 64.3906 135.588 70.2305 133.518 75.1133C131.487 79.9961 128.577 83.7461 124.788 86.3633C120.998 88.9805 116.467 90.2891 111.194 90.2891C108.225 90.2891 105.471 89.8008 102.932 88.8242C100.393 87.8477 98.186 86.4805 96.311 84.7227C94.436 82.9258 92.9125 80.7773 91.7406 78.2773H91.3891V109.508H74.2797ZM105.334 76.1094C108.186 76.1094 110.647 75.3672 112.717 73.8828C114.788 72.3594 116.389 70.2109 117.522 67.4375C118.655 64.6641 119.221 61.3828 119.221 57.5938V57.5352C119.221 53.707 118.655 50.4062 117.522 47.6328C116.389 44.8594 114.768 42.75 112.659 41.3047C110.588 39.8203 108.147 39.0781 105.334 39.0781C102.561 39.0781 100.12 39.8398 98.0102 41.3633C95.9008 42.8477 94.2602 44.9766 93.0883 47.75C91.9164 50.4844 91.3305 53.7656 91.3305 57.5938V57.6523C91.3305 61.4023 91.9164 64.6641 93.0883 67.4375C94.2992 70.2109 95.9399 72.3594 98.0102 73.8828C100.12 75.3672 102.561 76.1094 105.334 76.1094ZM172.891 90.2891C165.938 90.2891 160.781 88.8242 157.422 85.8945C154.063 82.9648 152.383 78.1406 152.383 71.4219V39.0781H143.652V26.1875H152.383V10.8359H169.668V26.1875H181.152V39.0781H169.668V69.5469C169.668 72.4766 170.313 74.5273 171.602 75.6992C172.93 76.832 174.883 77.3984 177.461 77.3984C178.242 77.3984 178.926 77.3789 179.512 77.3398C180.098 77.2617 180.645 77.1836 181.152 77.1055V89.6445C180.215 89.8008 179.043 89.9375 177.637 90.0547C176.27 90.2109 174.688 90.2891 172.891 90.2891ZM193.338 89V26.1875H210.447V89H193.338ZM201.892 18.1016C199.314 18.1016 197.146 17.2227 195.388 15.4648C193.63 13.707 192.752 11.6172 192.752 9.19531C192.752 6.73438 193.63 4.64453 195.388 2.92578C197.146 1.16797 199.314 0.289062 201.892 0.289062C204.47 0.289062 206.638 1.16797 208.396 2.92578C210.154 4.64453 211.033 6.73438 211.033 9.19531C211.033 11.6172 210.154 13.707 208.396 15.4648C206.638 17.2227 204.47 18.1016 201.892 18.1016ZM253.159 90.2891C246.792 90.2891 241.284 88.9805 236.636 86.3633C231.988 83.7461 228.394 79.9961 225.855 75.1133C223.316 70.2305 222.046 64.3906 222.046 57.5938V57.4766C222.046 50.7188 223.335 44.918 225.913 40.0742C228.491 35.1914 232.105 31.4414 236.753 28.8242C241.402 26.207 246.851 24.8984 253.101 24.8984C259.39 24.8984 264.859 26.207 269.507 28.8242C274.195 31.4023 277.827 35.1328 280.405 40.0156C282.984 44.8594 284.273 50.6797 284.273 57.4766V57.5938C284.273 64.4297 282.984 70.2891 280.405 75.1719C277.866 80.0547 274.273 83.8047 269.624 86.4219C264.976 89 259.488 90.2891 253.159 90.2891ZM253.218 76.8711C255.991 76.8711 258.394 76.1289 260.425 74.6445C262.495 73.1211 264.077 70.9336 265.171 68.082C266.304 65.1914 266.87 61.6953 266.87 57.5938V57.4766C266.87 53.4141 266.304 49.957 265.171 47.1055C264.038 44.2539 262.437 42.0859 260.366 40.6016C258.296 39.0781 255.874 38.3164 253.101 38.3164C250.366 38.3164 247.964 39.0781 245.894 40.6016C243.863 42.0859 242.28 44.2539 241.148 47.1055C240.015 49.957 239.448 53.4141 239.448 57.4766V57.5938C239.448 61.6953 239.995 65.1914 241.089 68.082C242.222 70.9336 243.823 73.1211 245.894 74.6445C247.964 76.1289 250.405 76.8711 253.218 76.8711ZM295.52 89V26.1875H312.63V36.5H312.981C314.622 32.9062 317.044 30.0742 320.247 28.0039C323.45 25.9336 327.415 24.8984 332.141 24.8984C339.055 24.8984 344.388 26.9883 348.138 31.168C351.927 35.3086 353.821 41.0703 353.821 48.4531V89H336.712V51.9688C336.712 47.8672 335.735 44.7031 333.782 42.4766C331.868 40.2109 328.997 39.0781 325.169 39.0781C322.63 39.0781 320.423 39.6641 318.548 40.8359C316.673 41.9688 315.208 43.5703 314.153 45.6406C313.138 47.7109 312.63 50.1328 312.63 52.9062V89H295.52ZM404.268 90.2891C401.26 90.2891 398.506 89.8008 396.006 88.8242C393.506 87.8477 391.319 86.4805 389.444 84.7227C387.569 82.9258 386.065 80.7773 384.932 78.2773H384.58V89H367.471V4.44922H384.58V37.0859H384.932C386.104 34.5469 387.627 32.3789 389.502 30.582C391.377 28.7461 393.565 27.3398 396.065 26.3633C398.604 25.3867 401.358 24.8984 404.327 24.8984C409.6 24.8984 414.131 26.207 417.92 28.8242C421.748 31.4023 424.698 35.1328 426.768 40.0156C428.838 44.8594 429.873 50.6992 429.873 57.5352V57.5938C429.873 64.3906 428.838 70.2305 426.768 75.1133C424.698 79.9961 421.748 83.7461 417.92 86.3633C414.092 88.9805 409.541 90.2891 404.268 90.2891ZM398.584 76.1094C401.436 76.1094 403.897 75.3672 405.967 73.8828C408.038 72.3594 409.639 70.2109 410.772 67.4375C411.905 64.6641 412.471 61.3828 412.471 57.5938V57.5352C412.471 53.707 411.905 50.4258 410.772 47.6914C409.639 44.918 408.018 42.7891 405.909 41.3047C403.838 39.8203 401.397 39.0781 398.584 39.0781C395.811 39.0781 393.37 39.8398 391.26 41.3633C389.19 42.8477 387.549 44.9766 386.338 47.75C385.166 50.4844 384.58 53.7461 384.58 57.5352V57.5938C384.58 61.3828 385.166 64.6641 386.338 67.4375C387.51 70.2109 389.151 72.3594 391.26 73.8828C393.37 75.3672 395.811 76.1094 398.584 76.1094ZM459.754 89.9961C455.574 89.9961 451.902 89.1953 448.738 87.5938C445.574 85.9531 443.094 83.707 441.297 80.8555C439.539 77.9648 438.66 74.6836 438.66 71.0117V70.8945C438.66 67.0664 439.617 63.8047 441.531 61.1094C443.445 58.375 446.219 56.2266 449.852 54.6641C453.484 53.1016 457.898 52.1445 463.094 51.793L487.586 50.2695V60.9336L465.672 62.3398C462.391 62.5352 459.891 63.3164 458.172 64.6836C456.453 66.0117 455.594 67.7891 455.594 70.0156V70.1328C455.594 72.4375 456.473 74.2539 458.23 75.582C459.988 76.8711 462.352 77.5156 465.32 77.5156C467.859 77.5156 470.125 77.0273 472.117 76.0508C474.148 75.0352 475.73 73.668 476.863 71.9492C478.035 70.1914 478.621 68.2188 478.621 66.0312V46.9883C478.621 44.2148 477.742 42.0273 475.984 40.4258C474.227 38.7852 471.668 37.9648 468.309 37.9648C465.105 37.9648 462.566 38.6289 460.691 39.957C458.816 41.2852 457.664 42.9648 457.234 44.9961L457.117 45.5234H441.473L441.531 44.8203C441.844 40.9531 443.113 37.5156 445.34 34.5078C447.605 31.5 450.73 29.1562 454.715 27.4766C458.738 25.7578 463.504 24.8984 469.012 24.8984C474.441 24.8984 479.148 25.7773 483.133 27.5352C487.117 29.2539 490.203 31.6953 492.391 34.8594C494.617 38.0234 495.73 41.7148 495.73 45.9336V89H478.621V79.625H478.27C477.098 81.7734 475.574 83.6289 473.699 85.1914C471.863 86.7148 469.773 87.9062 467.43 88.7656C465.086 89.5859 462.527 89.9961 459.754 89.9961ZM535.045 90.2891C529.263 90.2891 524.341 89.4492 520.279 87.7695C516.216 86.0898 513.033 83.7656 510.728 80.7969C508.463 77.7891 507.095 74.3125 506.627 70.3672L506.568 69.8398H523.267L523.384 70.3672C523.931 72.8281 525.162 74.7422 527.076 76.1094C528.99 77.4766 531.646 78.1602 535.045 78.1602C537.232 78.1602 539.088 77.9062 540.611 77.3984C542.134 76.8516 543.306 76.0898 544.127 75.1133C544.986 74.1367 545.416 72.9648 545.416 71.5977V71.5391C545.416 69.8594 544.81 68.5117 543.599 67.4961C542.388 66.4805 540.24 65.6211 537.154 64.918L526.49 62.6914C522.427 61.832 519.029 60.6016 516.295 59C513.599 57.3594 511.568 55.3477 510.201 52.9648C508.834 50.543 508.15 47.7695 508.15 44.6445V44.5859C508.15 40.5625 509.224 37.0859 511.373 34.1562C513.521 31.2266 516.568 28.9609 520.513 27.3594C524.498 25.7188 529.146 24.8984 534.459 24.8984C540.005 24.8984 544.713 25.7969 548.58 27.5938C552.486 29.3516 555.474 31.7344 557.545 34.7422C559.654 37.75 560.767 41.0898 560.884 44.7617V45.3477H545.123L545.064 44.8789C544.791 42.6133 543.736 40.7383 541.9 39.2539C540.103 37.7305 537.623 36.9688 534.459 36.9688C532.505 36.9688 530.806 37.2422 529.361 37.7891C527.916 38.3359 526.802 39.1172 526.021 40.1328C525.24 41.1094 524.849 42.2812 524.849 43.6484V43.707C524.849 44.7617 525.103 45.7188 525.611 46.5781C526.158 47.3984 527.056 48.1211 528.306 48.7461C529.556 49.3711 531.236 49.918 533.345 50.3867L544.009 52.6719C550.611 54.0391 555.338 56.0898 558.189 58.8242C561.08 61.5586 562.525 65.2305 562.525 69.8398V69.8984C562.525 74 561.353 77.5742 559.009 80.6211C556.666 83.668 553.423 86.0508 549.283 87.7695C545.181 89.4492 540.435 90.2891 535.045 90.2891ZM601.956 90.2891C595.55 90.2891 590.042 88.9805 585.433 86.3633C580.823 83.707 577.269 79.9375 574.769 75.0547C572.308 70.1719 571.077 64.3906 571.077 57.7109V57.6523C571.077 50.9727 572.308 45.1914 574.769 40.3086C577.269 35.3867 580.765 31.5977 585.257 28.9414C589.788 26.2461 595.12 24.8984 601.253 24.8984C607.386 24.8984 612.679 26.207 617.132 28.8242C621.624 31.4023 625.081 35.0547 627.503 39.7812C629.964 44.5078 631.195 50.0352 631.195 56.3633V61.6367H579.456V50.8555H623.109L614.964 60.9336V54.3711C614.964 50.6992 614.398 47.6328 613.265 45.1719C612.132 42.6719 610.55 40.7969 608.519 39.5469C606.527 38.2969 604.202 37.6719 601.546 37.6719C598.89 37.6719 596.527 38.3164 594.456 39.6055C592.425 40.8945 590.823 42.7891 589.652 45.2891C588.519 47.75 587.952 50.7773 587.952 54.3711V60.9922C587.952 64.4688 588.519 67.4375 589.652 69.8984C590.823 72.3594 592.484 74.2539 594.632 75.582C596.78 76.8711 599.339 77.5156 602.308 77.5156C604.652 77.5156 606.683 77.1445 608.402 76.4023C610.12 75.6602 611.527 74.7227 612.62 73.5898C613.714 72.457 614.456 71.3047 614.847 70.1328L614.964 69.7812H630.667L630.491 70.4258C630.023 72.7305 629.105 75.0547 627.737 77.3984C626.37 79.7422 624.515 81.8906 622.171 83.8438C619.866 85.7969 617.034 87.3594 613.675 88.5312C610.355 89.7031 606.448 90.2891 601.956 90.2891Z" fill="url(#paint0_linear_552_1216)"/>
<defs>
<linearGradient id="paint0_linear_552_1216" x1="316" y1="-4" x2="316" y2="96" gradientUnits="userSpaceOnUse">
<stop offset="0.2" stop-color="#349D5E"/>
<stop offset="0.9999" stop-color="#0052FF"/>
</linearGradient>
</defs>
</svg>
